<svg xmlns="http://www.w3.org/2000/svg" xmlns:xlink="http://www.w3.org/1999/xlink" width="800" zoomAndPan="magnify" viewBox="0 0 600 449.999984" height="600" preserveAspectRatio="xMidYMid meet" version="1.0"><defs><clipPath id="dd0d8a2aac"><path d="M 106.78125 31.78125 L 493.03125 31.78125 L 493.03125 418.03125 L 106.78125 418.03125 Z M 106.78125 31.78125 " clip-rule="nonzero"/></clipPath></defs><g clip-path="url(#dd0d8a2aac)"><path fill="#ff0a0a" d="M 106.78125 224.90625 C 106.78125 118.371094 193.371094 31.78125 299.90625 31.78125 C 406.445312 31.78125 492.546875 118.371094 493.03125 224.90625 C 493.03125 331.445312 406.445312 418.03125 299.90625 418.03125 C 193.371094 418.03125 106.78125 331.445312 106.78125 224.90625 Z M 371.792969 349.566406 C 380.441406 344.519531 388.429688 338.582031 395.753906 331.757812 C 425.25 305.335938 443.679688 267.242188 443.679688 225.460938 C 443.679688 146.203125 379.167969 81.6875 299.90625 81.6875 C 220.648438 81.6875 156.136719 146.203125 156.136719 225.460938 C 156.136719 267.847656 174.566406 305.945312 204.0625 332.363281 C 211.433594 338.511719 219.425781 344.65625 228.023438 349.578125 C 233.460938 352.710938 239.085938 355.472656 244.890625 357.863281 C 250.695312 360.253906 256.632812 362.253906 262.703125 363.859375 C 268.773438 365.46875 274.921875 366.667969 281.148438 367.464844 C 287.375 368.261719 293.628906 368.644531 299.90625 368.613281 C 326.328125 368.613281 350.902344 361.863281 371.792969 349.566406 Z M 371.792969 349.566406 " fill-opacity="1" fill-rule="evenodd"/></g><path fill="#ff0a0a" d="M 287.261719 202.042969 L 286.402344 202.339844 C 285.429688 202.753906 284.417969 202.980469 283.367188 203.011719 C 282.917969 203.023438 282.472656 203 282.027344 202.9375 C 281.582031 202.871094 281.148438 202.773438 280.722656 202.636719 C 280.292969 202.5 279.882812 202.328125 279.484375 202.121094 C 279.085938 201.914062 278.707031 201.675781 278.347656 201.40625 C 277.992188 201.136719 277.65625 200.839844 277.351562 200.511719 C 277.042969 200.1875 276.761719 199.835938 276.515625 199.464844 C 276.265625 199.089844 276.050781 198.699219 275.867188 198.289062 C 275.683594 197.882812 275.535156 197.460938 275.421875 197.023438 C 275.308594 196.589844 275.234375 196.152344 275.195312 195.703125 C 275.160156 195.257812 275.160156 194.808594 275.195312 194.363281 C 275.234375 193.917969 275.308594 193.476562 275.417969 193.042969 C 275.53125 192.605469 275.675781 192.183594 275.859375 191.773438 C 276.042969 191.367188 276.257812 190.972656 276.507812 190.601562 C 276.753906 190.226562 277.03125 189.878906 277.339844 189.550781 C 277.648438 189.222656 277.980469 188.925781 278.335938 188.65625 C 278.695312 188.382812 279.070312 188.144531 279.46875 187.9375 C 279.933594 187.703125 280.414062 187.511719 280.917969 187.371094 C 281.417969 187.226562 281.925781 187.136719 282.445312 187.09375 C 282.964844 187.050781 283.484375 187.058594 284 187.117188 C 284.515625 187.175781 285.023438 187.28125 285.519531 187.441406 C 286.015625 187.597656 286.492188 187.800781 286.949219 188.050781 C 287.40625 188.304688 287.832031 188.59375 288.230469 188.929688 C 288.632812 189.261719 288.996094 189.632812 289.320312 190.039062 C 289.648438 190.445312 289.933594 190.875 290.175781 191.335938 C 292.613281 194.746094 291.15625 199.613281 287.261719 202.042969 Z M 265.378906 231.71875 C 269.746094 231.71875 273.644531 228.308594 273.644531 223.9375 C 274.128906 219.554688 270.71875 215.660156 265.367188 215.660156 C 260.996094 215.660156 257.101562 219.070312 257.101562 223.453125 C 257.101562 227.820312 260.511719 231.71875 264.878906 231.71875 Z M 281.910156 261.878906 C 282.597656 261.886719 283.277344 261.800781 283.945312 261.628906 C 284.609375 261.453125 285.242188 261.195312 285.84375 260.855469 C 286.441406 260.511719 286.984375 260.097656 287.472656 259.609375 C 287.960938 259.121094 288.375 258.582031 288.71875 257.980469 C 291.144531 254.097656 289.6875 249.230469 286.289062 246.792969 C 282.394531 244.363281 277.539062 245.335938 275.101562 249.21875 C 272.671875 253.125 273.644531 257.980469 277.527344 260.421875 C 278.839844 261.355469 280.300781 261.84375 281.910156 261.878906 Z M 318.988281 262.175781 L 319.859375 261.878906 C 320.328125 261.644531 320.769531 261.363281 321.175781 261.035156 C 321.585938 260.710938 321.957031 260.34375 322.289062 259.9375 C 322.621094 259.535156 322.90625 259.097656 323.148438 258.632812 C 323.386719 258.167969 323.574219 257.683594 323.714844 257.175781 C 323.851562 256.671875 323.933594 256.15625 323.960938 255.636719 C 323.992188 255.113281 323.964844 254.59375 323.886719 254.074219 C 323.804688 253.558594 323.667969 253.054688 323.484375 252.566406 C 323.296875 252.078125 323.058594 251.613281 322.773438 251.171875 C 322.53125 250.710938 322.246094 250.28125 321.921875 249.875 C 321.59375 249.46875 321.230469 249.097656 320.832031 248.765625 C 320.433594 248.429688 320.003906 248.136719 319.546875 247.886719 C 319.09375 247.636719 318.617188 247.433594 318.121094 247.277344 C 317.625 247.117188 317.117188 247.011719 316.601562 246.953125 C 316.082031 246.894531 315.5625 246.886719 315.046875 246.929688 C 314.527344 246.96875 314.015625 247.0625 313.515625 247.207031 C 313.015625 247.347656 312.535156 247.539062 312.070312 247.773438 C 311.671875 247.980469 311.292969 248.21875 310.9375 248.492188 C 310.578125 248.761719 310.246094 249.058594 309.9375 249.386719 C 309.632812 249.714844 309.355469 250.0625 309.105469 250.4375 C 308.855469 250.808594 308.640625 251.203125 308.460938 251.609375 C 308.277344 252.019531 308.128906 252.441406 308.019531 252.875 C 307.90625 253.3125 307.832031 253.75 307.796875 254.199219 C 307.757812 254.644531 307.757812 255.09375 307.796875 255.539062 C 307.835938 255.984375 307.910156 256.425781 308.023438 256.859375 C 308.132812 257.296875 308.28125 257.714844 308.464844 258.125 C 308.648438 258.535156 308.863281 258.925781 309.113281 259.300781 C 309.363281 259.671875 309.640625 260.023438 309.949219 260.347656 C 310.257812 260.675781 310.589844 260.972656 310.949219 261.242188 C 311.304688 261.511719 311.683594 261.75 312.082031 261.957031 C 312.480469 262.164062 312.894531 262.332031 313.320312 262.472656 C 313.746094 262.609375 314.183594 262.707031 314.625 262.769531 C 315.070312 262.835938 315.515625 262.859375 315.964844 262.847656 C 317.019531 262.816406 318.03125 262.597656 319 262.1875 Z M 317.90625 203.984375 C 316.296875 203.949219 314.835938 203.464844 313.527344 202.527344 C 309.640625 200.101562 308.671875 195.234375 311.097656 191.335938 C 313.527344 187.453125 318.394531 186.480469 322.289062 188.910156 L 322.773438 188.910156 C 326.667969 191.335938 327.628906 196.203125 325.203125 200.101562 C 323.261719 202.527344 320.347656 203.984375 317.917969 203.984375 Z M 325.699219 225.878906 C 325.699219 230.261719 329.097656 234.15625 333.964844 234.15625 C 334.472656 234.140625 334.972656 234.082031 335.46875 233.972656 C 335.964844 233.863281 336.445312 233.707031 336.910156 233.507812 C 337.378906 233.304688 337.820312 233.0625 338.238281 232.777344 C 338.660156 232.492188 339.050781 232.171875 339.40625 231.8125 C 339.765625 231.453125 340.089844 231.0625 340.371094 230.644531 C 340.65625 230.222656 340.898438 229.777344 341.097656 229.3125 C 341.300781 228.847656 341.453125 228.363281 341.5625 227.871094 C 341.671875 227.375 341.730469 226.871094 341.746094 226.363281 C 341.746094 221.984375 338.34375 218.089844 333.964844 218.089844 C 329.582031 218.089844 325.6875 221.507812 325.6875 225.878906 Z M 325.699219 225.878906 " fill-opacity="1" fill-rule="evenodd"/><path fill="#ff0a0a" d="M 313.527344 224.90625 C 313.527344 225.800781 313.4375 226.6875 313.265625 227.566406 C 313.089844 228.441406 312.832031 229.292969 312.488281 230.121094 C 312.148438 230.945312 311.726562 231.730469 311.230469 232.472656 C 310.734375 233.21875 310.167969 233.90625 309.539062 234.539062 C 308.90625 235.167969 308.21875 235.734375 307.472656 236.230469 C 306.730469 236.726562 305.945312 237.148438 305.121094 237.488281 C 304.292969 237.832031 303.441406 238.089844 302.566406 238.265625 C 301.6875 238.4375 300.800781 238.527344 299.90625 238.527344 C 299.015625 238.527344 298.128906 238.4375 297.25 238.265625 C 296.375 238.089844 295.523438 237.832031 294.695312 237.488281 C 293.871094 237.148438 293.085938 236.726562 292.34375 236.230469 C 291.597656 235.734375 290.910156 235.167969 290.277344 234.539062 C 289.644531 233.90625 289.082031 233.21875 288.585938 232.472656 C 288.089844 231.730469 287.667969 230.945312 287.328125 230.121094 C 286.984375 229.292969 286.726562 228.441406 286.550781 227.566406 C 286.378906 226.6875 286.289062 225.800781 286.289062 224.90625 C 286.289062 224.015625 286.378906 223.128906 286.550781 222.25 C 286.726562 221.375 286.984375 220.523438 287.328125 219.695312 C 287.667969 218.871094 288.089844 218.085938 288.585938 217.34375 C 289.082031 216.597656 289.644531 215.910156 290.277344 215.277344 C 290.910156 214.644531 291.597656 214.082031 292.34375 213.585938 C 293.085938 213.089844 293.871094 212.667969 294.695312 212.328125 C 295.523438 211.984375 296.375 211.726562 297.25 211.550781 C 298.128906 211.378906 299.015625 211.289062 299.90625 211.289062 C 300.800781 211.289062 301.6875 211.378906 302.566406 211.550781 C 303.441406 211.726562 304.292969 211.984375 305.121094 212.328125 C 305.945312 212.667969 306.730469 213.089844 307.472656 213.585938 C 308.21875 214.082031 308.90625 214.644531 309.539062 215.277344 C 310.167969 215.910156 310.734375 216.597656 311.230469 217.34375 C 311.726562 218.085938 312.148438 218.871094 312.488281 219.695312 C 312.832031 220.523438 313.089844 221.375 313.265625 222.25 C 313.4375 223.128906 313.527344 224.015625 313.527344 224.90625 Z M 313.527344 224.90625 " fill-opacity="1" fill-rule="nonzero"/><path fill="#ff0a0a" d="M 199.703125 209.347656 L 227.910156 229.765625 C 238.617188 237.554688 242.984375 251.171875 238.617188 262.847656 L 227.910156 295.933594 C 209.425781 277.933594 198.234375 252.628906 198.234375 224.421875 C 198.234375 219.554688 198.722656 214.203125 199.691406 209.335938 Z M 206.015625 224.421875 C 206.007812 229.539062 206.421875 234.621094 207.257812 239.671875 C 208.09375 244.71875 209.335938 249.664062 210.992188 254.503906 C 212.648438 259.347656 214.695312 264.019531 217.125 268.519531 C 219.558594 273.023438 222.34375 277.292969 225.484375 281.332031 L 229.367188 269.171875 C 225.652344 263.414062 222.722656 257.28125 220.578125 250.769531 C 218.4375 244.261719 217.152344 237.585938 216.722656 230.746094 L 206.015625 222.964844 Z M 244.453125 179.1875 L 209.414062 179.1875 C 211.21875 175.625 213.222656 172.179688 215.433594 168.851562 C 217.640625 165.523438 220.035156 162.335938 222.621094 159.292969 C 225.203125 156.246094 227.957031 153.363281 230.878906 150.640625 C 233.804688 147.921875 236.875 145.382812 240.097656 143.023438 C 243.320312 140.664062 246.667969 138.5 250.144531 136.535156 C 253.621094 134.570312 257.203125 132.816406 260.886719 131.273438 C 264.570312 129.730469 268.332031 128.40625 272.167969 127.308594 C 276.007812 126.207031 279.898438 125.335938 283.839844 124.691406 L 273.136719 158.261719 C 268.765625 170.910156 257.574219 179.1875 244.441406 179.1875 Z M 235.207031 171.394531 C 243.957031 160.691406 255.632812 152.425781 268.777344 147.074219 L 273.148438 134.425781 C 268.042969 135.972656 263.101562 137.9375 258.332031 140.320312 C 253.558594 142.699219 249.019531 145.464844 244.710938 148.613281 C 240.40625 151.757812 236.390625 155.246094 232.675781 159.070312 C 228.957031 162.894531 225.582031 167.003906 222.558594 171.394531 Z M 326.667969 158.261719 L 315.964844 124.691406 C 319.90625 125.335938 323.796875 126.207031 327.636719 127.308594 C 331.476562 128.40625 335.234375 129.730469 338.917969 131.273438 C 342.601562 132.816406 346.183594 134.570312 349.660156 136.535156 C 353.136719 138.5 356.484375 140.664062 359.707031 143.023438 C 362.929688 145.382812 366.003906 147.921875 368.925781 150.640625 C 371.847656 153.363281 374.601562 156.246094 377.183594 159.292969 C 379.769531 162.335938 382.164062 165.523438 384.375 168.851562 C 386.582031 172.179688 388.585938 175.625 390.390625 179.1875 L 355.375 179.1875 C 353.789062 179.179688 352.214844 179.046875 350.652344 178.789062 C 349.089844 178.535156 347.554688 178.160156 346.050781 177.664062 C 344.546875 177.171875 343.089844 176.5625 341.679688 175.839844 C 340.269531 175.117188 338.925781 174.289062 337.648438 173.355469 C 336.367188 172.421875 335.167969 171.394531 334.046875 170.273438 C 332.929688 169.152344 331.902344 167.953125 330.972656 166.671875 C 330.039062 165.390625 329.214844 164.046875 328.492188 162.636719 C 327.769531 161.226562 327.164062 159.769531 326.667969 158.261719 Z M 326.667969 134.910156 L 330.554688 147.074219 C 343.6875 152.425781 355.375 161.1875 364.609375 171.882812 L 377.257812 171.882812 C 374.234375 167.488281 370.859375 163.378906 367.140625 159.554688 C 363.425781 155.730469 359.410156 152.246094 355.105469 149.097656 C 350.796875 145.949219 346.257812 143.1875 341.484375 140.804688 C 336.714844 138.425781 331.773438 136.460938 326.667969 134.910156 Z M 371.894531 229.765625 L 400.113281 209.347656 L 400.839844 217.128906 L 401.570312 224.90625 C 401.574219 228.222656 401.414062 231.527344 401.089844 234.824219 C 400.765625 238.125 400.28125 241.398438 399.636719 244.648438 C 398.992188 247.898438 398.1875 251.109375 397.222656 254.28125 C 396.261719 257.453125 395.144531 260.566406 393.875 263.628906 C 392.605469 266.6875 391.1875 269.679688 389.621094 272.601562 C 388.054688 275.519531 386.351562 278.359375 384.507812 281.109375 C 382.660156 283.863281 380.683594 286.519531 378.578125 289.078125 C 376.46875 291.632812 374.242188 294.082031 371.894531 296.417969 L 361.191406 263.335938 C 356.820312 250.6875 361.191406 237.554688 371.894531 229.773438 Z M 370.4375 269.171875 L 374.332031 281.332031 C 377.488281 277.304688 380.289062 273.039062 382.726562 268.539062 C 385.167969 264.039062 387.214844 259.367188 388.871094 254.523438 C 390.527344 249.679688 391.769531 244.730469 392.59375 239.679688 C 393.417969 234.628906 393.816406 229.542969 393.789062 224.421875 L 393.789062 222.964844 L 383.085938 230.746094 C 382.652344 237.585938 381.367188 244.261719 379.226562 250.769531 C 377.082031 257.28125 374.152344 263.414062 370.4375 269.171875 Z M 282.394531 294.960938 C 292.613281 287.171875 306.71875 287.171875 317.421875 294.960938 L 345.144531 315.390625 C 331.527344 322.199219 316.449219 326.09375 299.898438 326.09375 C 292.046875 326.082031 284.300781 325.171875 276.660156 323.363281 C 269.019531 321.558594 261.6875 318.898438 254.660156 315.390625 Z M 279.964844 305.667969 L 269.261719 313.449219 C 278.984375 316.847656 289.203125 318.304688 299.90625 318.800781 C 310.429688 318.761719 320.644531 316.980469 330.554688 313.449219 L 319.851562 305.65625 C 313.292969 307.214844 306.648438 308.027344 299.90625 308.085938 C 293.167969 308.027344 286.523438 307.214844 279.964844 305.65625 Z M 279.964844 305.667969 " fill-opacity="1" fill-rule="evenodd"/></svg>